:SAMPLES-PER-SECOND 30
:FULLY-SPECIFIED
:DEGREES
1
root  80.2305 40.0794 22.9786 76.6307 -88.9291 -76.7396
RightUpLeg  -1.45549 -7.33455 -2.47046
RightLeg  6.30164 -5.87548 3.52525
RightFoot  -4.1543 0.155154 -2.97486
RightToes  1.16414e-010 0 -3.6325e-017
Spine  3.10236 0.0764011 3.48299
Spine1  -0.0421413 0.464737 -1.15171
HEad  9.43242 3.95902 -2.92387
LeftShoulder1  1.43326 -1.32176 -23.2437
LeftArm  -27.7673 24.5856 4.53707
LeftForeArm  30.8729 -51.9484 -11.8868
LeftHand  -0.244104 0.0205437 5.32207
RightShoulder  0.502256 -0.664746 10.4423
RightArm  -18.0737 -0.446999 1.17663
RightForeArm  7.30246 1.04799 3.41928
RightHand  -1.18963 5.08036 -13.2629
LeftUpLeg  -3.5346 30.8082 9.90654
LeftLeg  13.4675 -27.1949 -10.8091
LeftFoot  -2.04239 0.0548548 -0.38768
LeftToes  9.04034e-010 7.59002e-011 -1.12606e-011
2
root  80.2359 40.0775 22.9741 75.7921 -88.9132 -75.9265
RightUpLeg  -1.4221 -7.3167 -2.4487
RightLeg  6.27708 -5.92602 3.51634
RightFoot  -4.16395 0.153097 -2.94281
RightToes  1.16414e-010 0 -3.6325e-017
Spine  3.13609 0.0909846 3.39828
Spine1  -0.0227644 0.453659 -1.00551
HEad  8.60699 4.0122 -2.34071
LeftShoulder1  1.50583 -1.52512 -23.5091
LeftArm  -28.1859 24.8061 4.95779
LeftForeArm  31.5889 -52.0815 -11.8922
LeftHand  -0.244104 0.0205437 5.32207
RightShoulder  0.488285 -0.736918 10.3939
RightArm  -18.1301 -0.4163 1.23194
RightForeArm  7.02374 1.02039 3.41431
RightHand  -1.1795 4.91906 -13.4433
LeftUpLeg  -3.53811 30.8564 9.92428
LeftLeg  13.5132 -27.265 -10.8188
LeftFoot  -2.0549 0.0548548 -0.38768
LeftToes  9.04034e-010 7.59002e-011 -1.12606e-011
3
root  80.2501 40.0737 22.9652 75.9393 -88.8882 -76.0893
RightUpLeg  -1.42344 -7.2703 -2.39559
RightLeg  6.26307 -5.98368 3.49479
RightFoot  -4.17028 0.150818 -2.90731
RightToes  1.16414e-010 0 -3.6325e-017
Spine  3.34562 0.0698221 3.3576
Spine1  -0.255865 0.418648 -0.930698
HEad  7.62354 4.1251 -1.65665
LeftShoulder1  1.58618 -1.74329 -23.8205
LeftArm  -28.8127 25.2205 5.49416
LeftForeArm  32.4506 -52.4157 -11.9824
LeftHand  -0.244104 0.0205437 5.32207
RightShoulder  0.483144 -0.771101 10.4294
RightArm  -18.1184 -0.396599 1.25246
RightForeArm  6.63921 1.02072 3.43345
RightHand  -1.16319 4.62164 -13.7181
LeftUpLeg  -3.59515 30.9954 9.93576
LeftLeg  13.6211 -27.3983 -10.83
LeftFoot  -2.07118 0.0548994 -0.388374
LeftToes  9.04034e-010 7.59002e-011 -1.12606e-011
4
root  80.269 40.0714 22.956 78.2996 -88.8926 -78.4215
RightUpLeg  -1.52095 -7.23106 -2.35588
RightLeg  6.31968 -5.97193 3.47029
RightFoot  -4.16323 0.149372 -2.88478
RightToes  1.16414e-010 0 -3.6325e-017
Spine  3.69809 0.0323552 3.33878
Spine1  -0.769095 0.376703 -0.911671
HEad  6.74136 4.2653 -1.07228
LeftShoulder1  1.66269 -1.94427 -24.1321
LeftArm  -29.4224 25.5783 6.09086
LeftForeArm  33.007 -52.4541 -11.9556
LeftHand  -0.244104 0.0205437 5.32207
RightShoulder  0.492348 -0.734984 10.5431
RightArm  -18.0142 -0.385826 1.17973
RightForeArm  6.56499 1.02169 3.46424
RightHand  -1.15322 4.46354 -13.8046
LeftUpLeg  -3.68692 31.1243 9.90751
LeftLeg  13.6867 -27.4663 -10.8238
LeftFoot  -2.06112 0.0552868 -0.394393
LeftToes  9.04034e-010 7.59002e-011 -1.12606e-011
5
root  80.2859 40.0712 22.947 82.1468 -88.9111 -82.2112
RightUpLeg  -1.66804 -7.18926 -2.31744
RightLeg  6.40927 -5.9368 3.4352
RightFoot  -4.14767 0.15005 -2.89535
RightToes  1.16414e-010 0 -3.6325e-017
Spine  3.97943 0.0550675 3.26671
Spine1  -1.23476 0.378459 -0.798441
HEad  5.61075 4.52657 -0.323786
LeftShoulder1  1.75368 -2.17965 -24.4934
LeftArm  -29.9125 25.7693 6.70191
LeftForeArm  33.3721 -52.2785 -11.8405
LeftHand  -0.244104 0.0205437 5.32207
RightShoulder  0.49049 -0.75205 10.5902
RightArm  -17.8586 -0.413571 1.10203
RightForeArm  6.71138 1.08515 3.50708
RightHand  -1.1361 4.41429 -13.6707
LeftUpLeg  -3.7714 31.203 9.87485
LeftLeg  13.6857 -27.4592 -10.8164
LeftFoot  -2.02976 0.0563691 -0.411214
LeftToes  9.04034e-010 7.59002e-011 -1.12606e-011
6
root  80.2968 40.0705 22.9364 86.1372 -88.894 -86.1531
RightUpLeg  -1.76853 -7.10881 -2.23123
RightLeg  6.43484 -5.96136 3.38594
RightFoot  -4.12878 0.153157 -2.94375
RightToes  1.16414e-010 0 -3.6325e-017
Spine  4.03227 0.170374 3.16933
Spine1  -1.37704 0.45821 -0.59926
HEad  3.99 5.00065 0.78646
LeftShoulder1  1.8692 -2.4755 -24.9281
LeftArm  -30.5646 25.9846 7.16314
LeftForeArm  33.9255 -52.6118 -11.9575
LeftHand  -0.244104 0.0205437 5.32207
RightShoulder  0.464516 -0.889373 10.5251
RightArm  -17.6799 -0.541008 1.09189
RightForeArm  6.68193 1.29409 3.57612
RightHand  -1.10398 4.24009 -13.5249
LeftUpLeg  -3.83233 31.3073 9.90162
LeftLeg  13.6999 -27.4836 -10.8385
LeftFoot  -2.01529 0.0576251 -0.430733
LeftToes  9.04034e-010 7.59002e-011 -1.12606e-011
7
root  80.3034 40.0697 22.9265 89.4246 -88.8479 -89.4243
RightUpLeg  -1.78451 -7.03199 -2.13632
RightLeg  6.37849 -5.99859 3.36329
RightFoot  -4.10482 0.155967 -2.98752
RightToes  1.16414e-010 0 -3.6325e-017
Spine  4.02717 0.291296 3.08818
Spine1  -1.42936 0.542368 -0.394333
HEad  4.14526 4.88499 0.540617
LeftShoulder1  1.98471 -2.76211 -25.3695
LeftArm  -31.2422 26.2492 7.59301
LeftForeArm  34.4521 -53.1051 -12.1553
LeftHand  -0.244104 0.0205437 5.32207
RightShoulder  0.444749 -0.991197 10.4451
RightArm  -17.5139 -0.721048 1.06925
RightForeArm  6.47621 1.49972 3.64246
RightHand  -1.07428 3.98971 -13.5063
LeftUpLeg  -3.85936 31.4412 9.97605
LeftLeg  13.7493 -27.5503 -10.8781
LeftFoot  -2.02628 0.0588135 -0.449202
LeftToes  9.04034e-010 7.59002e-011 -1.12606e-011
8
root  80.3095 40.0688 22.9222 91.7967 -88.8314 -91.8063
RightUpLeg  -1.76144 -7.04747 -2.13193
RightLeg  6.32665 -5.93752 3.41051
RightFoot  -4.07817 0.156032 -2.98853
RightToes  1.16414e-010 0 -3.6325e-017
Spine  4.06319 0.346783 3.02922
Spine1  -1.50533 0.574531 -0.261121
HEad  4.19687 4.86979 0.450752
LeftShoulder1  2.09212 -3.02604 -25.7571
LeftArm  -31.728 26.3093 8.19993
LeftForeArm  34.5062 -52.7943 -11.9991
LeftHand  -0.244104 0.0205437 5.32207
RightShoulder  0.446138 -0.976093 10.4484
RightArm  -17.4815 -0.807163 0.973456
RightForeArm  6.42687 1.46575 3.63813
RightHand  -1.07381 3.94922 -13.5562
LeftUpLeg  -3.84557 31.4857 10.0176
LeftLeg  13.756 -27.5493 -10.8906
LeftFoot  -2.02945 0.060087 -0.468992
LeftToes  9.04034e-010 7.59002e-011 -1.12606e-011
9
root  80.3173 40.0679 22.9225 93.0181 -88.8541 -93.0435
RightUpLeg  -1.75724 -7.13938 -2.20694
RightLeg  6.34538 -5.80752 3.49579
RightFoot  -4.06176 0.155198 -2.97554
RightToes  1.16414e-010 0 -3.6325e-017
Spine  4.15403 0.373015 2.93115
Spine1  -1.61916 0.576244 -0.109848
HEad  4.21614 4.92736 0.326965
LeftShoulder1  2.19276 -3.26484 -26.1344
LeftArm  -32.1136 26.3527 8.82481
LeftForeArm  34.5188 -52.3677 -11.7898
LeftHand  -0.244104 0.0205437 5.32207
RightShoulder  0.448585 -0.944061 10.5027
RightArm  -17.5465 -0.790826 0.814925
RightForeArm  6.56794 1.25467 3.58311
RightHand  -1.09717 4.12557 -13.598
LeftUpLeg  -3.82366 31.4253 9.99667
LeftLeg  13.7149 -27.4754 -10.8652
LeftFoot  -2.01792 0.0612004 -0.486296
LeftToes  9.04034e-010 7.59002e-011 -1.12606e-011
10
root  80.3254 40.0671 22.9209 93.1127 -88.8591 -93.1494
RightUpLeg  -1.7776 -7.19365 -2.24029
RightLeg  6.39979 -5.74827 3.54385
RightFoot  -4.06386 0.156644 -2.99808
RightToes  1.16414e-010 0 -3.6325e-017
Spine  4.25283 0.397941 2.82397
Spine1  -1.72379 0.570384 0.079817
HEad  4.18523 4.99187 0.171345
LeftShoulder1  2.28266 -3.46677 -26.5037
LeftArm  -32.6256 26.8282 9.2207
LeftForeArm  35.0192 -53.0503 -12.0836
LeftHand  -0.244104 0.0205437 5.32207
RightShoulder  0.451193 -0.948292 10.5142
RightArm  -17.5675 -0.784197 0.687824
RightForeArm  6.63657 1.11958 3.55525
RightHand  -1.11259 4.24532 -13.6201
LeftUpLeg  -3.84013 31.4155 9.97171
LeftLeg  13.7288 -27.468 -10.8384
LeftFoot  -2.02788 0.0615078 -0.491072
LeftToes  9.04034e-010 7.59002e-011 -1.12606e-011
11
root  80.3316 40.0666 22.9192 93.0856 -88.8235 -93.1388
RightUpLeg  -1.78157 -7.17003 -2.19412
RightLeg  6.41955 -5.78418 3.54015
RightFoot  -4.0737 0.159181 -3.0376
RightToes  1.16414e-010 0 -3.6325e-017
Spine  4.31863 0.412255 2.76739
Spine1  -1.76828 0.558989 0.233788
HEad  4.14061 5.00072 0.0508051
LeftShoulder1  2.38024 -3.69434 -26.8408
LeftArm  -33.2474 27.2806 9.61617
LeftForeArm  35.2485 -53.5485 -12.3141
LeftHand  -0.244104 0.0205437 5.32207
RightShoulder  0.451177 -0.955893 10.445
RightArm  -17.5237 -0.825185 0.665856
RightForeArm  6.64967 1.11669 3.56323
RightHand  -1.11001 4.24739 -13.5867
LeftUpLeg  -3.87246 31.5202 9.99427
LeftLeg  13.8184 -27.5628 -10.8389
LeftFoot  -2.0654 0.06115 -0.485513
LeftToes  9.04034e-010 7.59002e-011 -1.12606e-011
